<svg xmlns="http://www.w3.org/2000/svg" width="45.134" height="40.12" viewBox="0 0 45.134 40.12">
  <path id="Icon_awesome-piggy-bank" data-name="Icon awesome-piggy-bank" d="M43.881,17.553H41.57a12.576,12.576,0,0,0-2.931-4.114L40.12,7.523H37.613a7.475,7.475,0,0,0-5.72,2.688,12.428,12.428,0,0,0-1.8-.18H20.06A12.55,12.55,0,0,0,7.773,20.06H4.388A1.883,1.883,0,0,1,2.547,17.8a1.93,1.93,0,0,1,1.92-1.5h.078a.472.472,0,0,0,.47-.47V14.262a.472.472,0,0,0-.47-.47A4.489,4.489,0,0,0,.039,17.6a4.391,4.391,0,0,0,4.349,4.968H7.522a12.487,12.487,0,0,0,5.015,9.975v6.324a1.257,1.257,0,0,0,1.254,1.254h5.015a1.257,1.257,0,0,0,1.254-1.254V35.105H30.09v3.761a1.257,1.257,0,0,0,1.254,1.254h5.015a1.257,1.257,0,0,0,1.254-1.254V32.543a12.539,12.539,0,0,0,2.453-2.453h3.816a1.257,1.257,0,0,0,1.254-1.254V18.806A1.257,1.257,0,0,0,43.881,17.553Zm-10.03,5.015a1.254,1.254,0,1,1,1.254-1.254A1.257,1.257,0,0,1,33.851,22.568ZM20.06,7.523H30.09c.423,0,.838.031,1.246.063,0-.024.008-.039.008-.063a7.523,7.523,0,1,0-15.045,0c0,.165.039.321.047.486A14.9,14.9,0,0,1,20.06,7.523Z" transform="translate(-0.002)"/>
</svg>
